# xmcd
#
# Track frame offsets:
#	150
#	19274
#	49329
#	90304
#	109687
#	133968
#	169087
#	191004
#	208781
#
# Disc length: 2979 seconds
#
# Revision: 0
# Processed by: cddbd v1.5.2PL0 Copyright (c) Steve Scherf et al.
# Submitted via: dBpowerAMP V4.0
#
DISCID=7d0ba109
DTITLE=Bourbon Street - Live At Grand Zanzibar
DYEAR=1900
DGENRE=Blues
TTITLE0=Baby What You Want Me To Do
TTITLE1=Roll'em Pete
TTITLE2=Railroad Station Blues
TTITLE3=Mean and Evil
TTITLE4=Bourbon Street Stomp
TTITLE5=Sweet Little Angel
TTITLE6=You Got Me Dizzy
TTITLE7=I've Got Papers On You Baby
TTITLE8=It Hurts Me Too
EXTD=
EXTT0=
EXTT1=
EXTT2=
EXTT3=
EXTT4=
EXTT5=
EXTT6=
EXTT7=
EXTT8=
PLAYORDER=
